# Blender 4.5.3 LTS
# www.blender.org
mtllib Roof_model.mtl
o Cube.002
v 5.303513 5.245678 11.512594
v -15.887991 7.068809 -12.367242
v -5.308245 5.801816 11.512594
v -15.887991 7.068809 12.367241
v 15.915273 4.689539 11.512594
v 15.947287 5.400393 -12.367242
v -15.920005 6.357955 11.512594
v 15.947287 5.400393 12.367241
v 14.651968 4.755746 -11.302848
v -15.887991 7.068809 -0.000001
v 5.303513 5.245678 -11.302848
v 15.947287 5.400393 0.000000
v -5.308245 5.801816 -11.302848
v -15.920005 6.357955 -11.302848
v -5.276231 6.512671 -12.367242
v 5.335527 5.956532 -12.367242
v -5.276231 6.512671 12.367241
v 5.335527 5.956532 12.367241
v 15.915273 4.689539 -11.302848
v 14.651968 4.755746 0.000000
v -2.379425 5.648324 -0.000001
v 14.651968 4.755746 11.512594
v 1.878936 5.425152 -11.302848
v -5.276231 6.512671 -0.000001
v 14.651968 4.755746 12.367241
v 14.683982 5.466600 -12.367242
v 14.683982 5.466600 12.367241
v 14.651968 4.755746 -12.367242
v -5.308245 5.801816 -0.000001
v 14.683982 5.466600 0.000000
v 5.303513 5.245678 12.367241
v 15.947287 5.400393 -11.302848
v -15.887991 7.068809 -11.302848
v -5.308245 5.801816 12.367241
v -5.276231 6.512671 -11.302848
v 5.335527 5.956532 -11.302848
v 5.303513 5.245678 -12.367242
v -5.308245 5.801816 -12.367242
v 14.683982 5.466600 -11.302848
v 15.915273 4.689539 0.000000
v -15.887991 7.068809 11.512594
v -15.920005 6.357955 -0.000001
v 15.915273 4.689539 12.367241
v 15.947287 5.400393 11.512594
v 15.915273 4.689539 -12.367242
v -15.920005 6.357955 12.367241
v -5.276231 6.512671 11.512594
v 5.335527 5.956532 11.512594
v -15.920005 6.357955 -12.367242
v 14.683982 5.466600 11.512594
v -2.347412 6.359178 -0.000001
v 1.910949 6.136006 -11.302848
v 5.335527 5.956532 5.460124
v -5.276231 6.512671 -6.626068
v 5.335527 5.956532 -8.525028
v 9.012055 5.763853 -0.000000
v 14.683982 5.466600 -3.315487
v 14.683982 5.466600 3.470562
v 14.683982 5.466600 7.744321
v 7.558268 5.840043 6.741493
v 9.941260 5.715156 9.279987
v -8.277078 6.669938 -0.000001
v -13.091300 6.922241 -0.000001
v -6.779418 6.591449 -2.792041
v -10.612887 6.792353 -5.244457
v -11.367608 6.831906 3.993730
v 9.535340 5.736429 11.512594
v 5.335527 5.956532 8.099702
v 5.335527 5.956532 8.709275
v 3.363512 6.059881 10.604629
v 5.303513 5.245678 5.460124
v -5.308245 5.801816 -6.626068
v 5.303513 5.245678 -8.525028
v 8.980042 5.052999 -0.000000
v 14.651968 4.755746 -3.315487
v 14.651968 4.755746 3.470562
v 14.651968 4.755746 7.744321
v 7.526254 5.129189 6.741493
v 9.909246 5.004302 9.279987
v -8.309092 5.959084 -0.000001
v -13.123314 6.211387 -0.000001
v -6.811431 5.880595 -2.792041
v -10.644901 6.081499 -5.244457
v -11.399621 6.121052 3.993730
v 9.503326 5.025575 11.512594
v 5.303513 5.245678 8.099702
v 5.303513 5.245678 8.709275
v 3.331498 5.349027 10.604629
v -8.697260 4.445405 -11.343735
v -8.697259 4.814226 -11.343735
v -9.404829 4.445405 -11.343735
v -9.404830 4.814226 -11.343735
v -9.404828 4.445405 -8.754237
v -9.404828 4.445405 -2.954236
v -9.404829 4.445405 2.845765
v -9.404828 4.445405 11.533415
v -9.404828 4.814226 11.533413
v -9.404830 4.814226 2.845764
v -9.404828 4.814226 -2.954237
v -9.404828 4.814226 -8.754238
v -8.697259 4.445405 11.533413
v -8.697259 4.445405 2.845764
v -8.697259 4.445405 -2.954237
v -8.697260 4.445405 -8.754238
v -8.697259 4.814226 -8.754237
v -8.697258 4.814226 -2.954236
v -8.697258 4.814226 2.845765
v -8.697258 4.814226 11.533415
v -9.404828 4.445405 -1.020903
v -9.404829 4.445405 0.912431
v -9.404830 4.814226 0.912430
v -9.404828 4.814226 -1.020904
v -8.697259 4.445405 0.912430
v -8.697259 4.445405 -1.020904
v -8.697258 4.814226 -1.020903
v -8.697258 4.814226 0.912431
v -14.155771 4.445405 -8.646216
v -14.155771 4.814226 -8.646216
v -14.155771 4.445405 -9.353786
v -14.155771 4.814226 -9.353786
v 14.041027 4.445405 -8.646216
v 14.041026 4.814226 -8.646216
v 14.041027 4.445405 -9.353786
v 14.041026 4.814226 -9.353786
v 8.700000 4.445405 -9.353786
v 2.900000 4.445405 -9.353786
v -2.900001 4.445405 -9.353786
v -8.700002 4.445405 -9.353786
v -8.700000 4.814226 -9.353786
v -2.900000 4.814226 -9.353786
v 2.900001 4.814226 -9.353786
v 8.700001 4.814226 -9.353786
v -8.700001 4.445405 -8.646216
v -2.900000 4.445405 -8.646216
v 2.900001 4.445405 -8.646215
v 8.700001 4.445405 -8.646216
v 8.700000 4.814226 -8.646216
v 2.900000 4.814226 -8.646215
v -2.900001 4.814226 -8.646216
v -8.700001 4.814226 -8.646216
v 0.966666 4.445405 -9.353786
v -0.966667 4.445405 -9.353786
v -0.966666 4.814226 -9.353786
v 0.966667 4.814226 -9.353786
v -0.966666 4.445405 -8.646216
v 0.966667 4.445405 -8.646216
v 0.966666 4.814226 -8.646216
v -0.966667 4.814226 -8.646216
v -14.155771 4.445405 9.353786
v -14.155771 4.814226 9.353786
v -14.155771 4.445405 8.646215
v -14.155771 4.814226 8.646215
v 13.940187 4.285293 9.353785
v 13.844576 4.641506 9.353785
v 13.940187 4.285293 8.646214
v 13.844576 4.641506 8.646214
v 8.872698 3.442678 8.615747
v 7.690037 2.420342 8.736850
v -3.735096 4.453348 8.646214
v -8.101428 3.602065 8.646215
v -8.172006 3.964069 8.646215
v -3.805674 4.815353 8.646214
v 7.691586 2.787352 8.700382
v 8.874248 3.809689 8.579279
v -8.101427 3.602065 9.353786
v -3.735096 4.453348 9.353786
v 7.808120 2.878165 9.400581
v 8.884361 3.512583 9.319759
v 8.885906 3.879593 9.283291
v 7.809669 3.245174 9.364113
v -3.805675 4.815352 9.353786
v -8.172007 3.964069 9.353786
v -14.155771 4.445405 6.353786
v -14.155771 4.814226 6.353786
v -14.155771 4.445405 5.646216
v -14.155771 4.814226 5.646216
v 14.041027 4.445405 6.353786
v 14.041026 4.814226 6.353786
v 14.041027 4.445405 5.646216
v 14.041026 4.814226 5.646216
v 8.700001 4.445405 5.646216
v 2.900000 4.445405 5.646216
v -2.900001 4.445405 5.646216
v -8.700001 4.445405 5.646216
v -8.699999 4.814226 5.646216
v -2.900000 4.814226 5.646216
v 2.900001 4.814226 5.646216
v 8.700002 4.814226 5.646216
v -8.700000 4.445405 6.353786
v -2.900000 4.445405 6.353786
v 2.900001 4.445405 6.353786
v 8.700003 4.445405 6.353786
v 8.700001 4.814226 6.353786
v 2.900000 4.814226 6.353786
v -2.900001 4.814226 6.353786
v -8.700000 4.814226 6.353786
v 0.966666 4.445405 5.646216
v -0.966667 4.445405 5.646216
v -0.966666 4.814226 5.646216
v 0.966667 4.814226 5.646216
v -0.966666 4.445405 6.353786
v 0.966667 4.445405 6.353786
v 0.966666 4.814226 6.353786
v -0.966667 4.814226 6.353786
v -14.155771 4.445405 3.424542
v -14.155771 4.814226 3.424542
v -14.155771 4.445405 2.575459
v -14.155771 4.814226 2.575459
v 14.041027 4.445405 3.424542
v 14.041026 4.814226 3.424542
v 14.041027 4.445405 2.575459
v 14.041026 4.814226 2.575459
v 8.700001 4.445405 2.575458
v 2.900000 4.445405 2.575458
v -4.020462 4.460215 2.550710
v -8.700002 4.445405 2.575459
v -8.700000 4.814226 2.575459
v -4.126517 4.813457 2.551268
v 2.900000 4.814226 2.575458
v 8.700001 4.814226 2.575458
v -8.700001 4.445405 3.424543
v -3.958314 4.475148 3.398927
v 2.900001 4.445405 3.424542
v 8.700002 4.445405 3.424542
v 8.700000 4.814226 3.424542
v 2.900000 4.814226 3.424542
v -4.064370 4.828391 3.399486
v -8.700001 4.814226 3.424543
v 0.966666 4.445405 2.575458
v -0.966667 4.445405 2.575458
v -0.966666 4.814226 2.575458
v 0.966667 4.814226 2.575458
v -0.966666 4.445405 3.424542
v 0.966667 4.445405 3.424542
v 0.966666 4.814226 3.424542
v -0.966667 4.814226 3.424542
v -5.667610 3.456776 2.600515
v -5.773664 3.810019 2.601074
v -5.605462 3.471709 3.448733
v -5.711518 3.824951 3.449291
v -14.155771 4.445405 0.353785
v -14.155771 4.814226 0.353785
v -14.155771 4.445405 -0.353785
v -14.155771 4.814226 -0.353785
v 14.041027 4.445405 0.353785
v 14.041026 4.814226 0.353785
v 14.041027 4.445405 -0.353785
v 14.041026 4.814226 -0.353785
v -14.155771 4.445405 -2.646215
v -14.155771 4.814226 -2.646215
v -14.155771 4.445405 -3.353785
v -14.155771 4.814226 -3.353785
v 14.041027 4.445405 -2.646215
v 14.041026 4.814226 -2.646215
v 14.041027 4.445405 -3.353785
v 14.041026 4.814226 -3.353785
v 8.700001 4.445405 -3.353785
v 2.900000 4.445405 -3.353785
v -2.900001 4.445405 -3.353785
v -8.700002 4.445405 -3.353785
v -8.700000 4.814226 -3.353785
v -2.900000 4.814226 -3.353785
v 2.900001 4.814226 -3.353785
v 8.700001 4.814226 -3.353785
v -8.700001 4.445405 -2.646215
v -2.900000 4.445405 -2.646215
v 2.900001 4.445405 -2.646215
v 8.700002 4.445405 -2.646215
v 8.700000 4.814226 -2.646215
v 2.900000 4.814226 -2.646215
v -2.900001 4.814226 -2.646215
v -8.700001 4.814226 -2.646215
v 0.966666 4.445405 -3.353785
v -0.966667 4.445405 -3.353785
v -0.966666 4.814226 -3.353785
v 0.966667 4.814226 -3.353785
v -0.966666 4.445405 -2.646215
v 0.966667 4.445405 -2.646215
v 0.966666 4.814226 -2.646215
v -0.966667 4.814226 -2.646215
v -2.697258 4.445405 -11.343735
v -2.697258 4.814226 -11.343735
v -3.404828 4.445405 -11.343735
v -3.404828 4.814226 -11.343735
v -3.404828 4.445405 -8.754237
v -3.404828 4.445405 -2.954236
v -3.404828 4.445405 2.845765
v -3.404828 4.445405 11.533415
v -3.404828 4.814226 11.533413
v -3.404828 4.814226 2.845764
v -3.404828 4.814226 -2.954237
v -3.404828 4.814226 -8.754238
v -2.697258 4.445405 11.533413
v -2.697258 4.445405 2.845763
v -2.697258 4.445405 -2.954238
v -2.697258 4.445405 -8.754238
v -2.697258 4.814226 -8.754237
v -2.697258 4.814226 -2.954237
v -2.697258 4.814226 2.845765
v -2.697258 4.814226 11.533415
v -3.404828 4.445405 -1.020903
v -3.404828 4.445405 0.912431
v -3.404828 4.814226 0.912430
v -3.404828 4.814226 -1.020904
v -2.697258 4.445405 0.912430
v -2.697258 4.445405 -1.020904
v -2.697258 4.814226 -1.020903
v -2.697258 4.814226 0.912431
v 8.697259 4.445405 -11.343735
v 8.697258 4.814226 -11.343735
v 9.404825 4.445405 -11.343735
v 9.404826 4.814226 -11.343735
v 9.404826 4.445405 -8.754238
v 9.404826 4.445405 -2.954237
v 9.404827 4.445405 2.845763
v 9.404828 4.445405 11.533415
v 9.404829 4.814226 11.533413
v 9.404828 4.814226 2.845763
v 9.404827 4.814226 -2.954238
v 9.404827 4.814226 -8.754239
v 8.697260 4.445405 11.533413
v 8.697259 4.445405 2.845763
v 8.697259 4.445405 -2.954238
v 8.697259 4.445405 -8.754239
v 8.697258 4.814226 -8.754238
v 8.697258 4.814226 -2.954237
v 8.697258 4.814226 2.845763
v 8.697259 4.814226 11.533415
v 9.404826 4.445405 -1.020904
v 9.404827 4.445405 0.912430
v 9.404828 4.814226 0.912429
v 9.404827 4.814226 -1.020905
v 8.697259 4.445405 0.912429
v 8.697259 4.445405 -1.020905
v 8.697258 4.814226 -1.020904
v 8.697258 4.814226 0.912430
v 14.155769 4.445405 -8.646217
v 14.155770 4.814226 -8.646217
v 14.155769 4.445405 -9.353787
v 14.155770 4.814226 -9.353787
v -14.041029 4.445405 -8.646214
v -14.041028 4.814226 -8.646214
v -14.041029 4.445405 -9.353785
v -14.041028 4.814226 -9.353785
v -8.700001 4.445405 -9.353786
v -2.900001 4.445405 -9.353786
v 2.900000 4.445405 -9.353786
v 8.700001 4.445405 -9.353786
v 8.700000 4.814226 -9.353786
v 2.899999 4.814226 -9.353786
v -2.900002 4.814226 -9.353786
v -8.700001 4.814226 -9.353786
v 8.700000 4.445405 -8.646217
v 2.899999 4.445405 -8.646216
v -2.900002 4.445405 -8.646215
v -8.700002 4.445405 -8.646214
v -8.700000 4.814226 -8.646214
v -2.900001 4.814226 -8.646215
v 2.900000 4.814226 -8.646216
v 8.700001 4.814226 -8.646217
v -0.966667 4.445405 -9.353786
v 0.966666 4.445405 -9.353786
v 0.966665 4.814226 -9.353786
v -0.966668 4.814226 -9.353786
v 0.966666 4.445405 -8.646216
v -0.966668 4.445405 -8.646216
v -0.966667 4.814226 -8.646216
v 0.966666 4.814226 -8.646216
v 14.155769 4.445405 9.353785
v 14.155770 4.814226 9.353785
v 14.155769 4.445405 8.646214
v 14.155770 4.814226 8.646214
v -13.940187 4.285294 9.353786
v -13.844577 4.641506 9.353786
v -13.940187 4.285294 8.646216
v -13.844577 4.641506 8.646216
v -8.872698 3.442678 8.615748
v -7.690036 2.420342 8.736851
v 3.735097 4.453348 8.646214
v 8.101429 3.602065 8.646214
v 8.172008 3.964069 8.646214
v 3.805675 4.815353 8.646214
v -7.691585 2.787352 8.700383
v -8.874247 3.809688 8.579280
v 8.101428 3.602065 9.353786
v 3.735097 4.453348 9.353786
v -7.808119 2.878165 9.400581
v -8.884361 3.512583 9.319759
v -8.885907 3.879593 9.283291
v -7.809668 3.245174 9.364113
v 3.805676 4.815352 9.353786
v 8.172009 3.964069 9.353786
v 14.155769 4.445405 6.353785
v 14.155770 4.814226 6.353785
v 14.155769 4.445405 5.646215
v 14.155770 4.814226 5.646215
v -14.041029 4.445405 6.353787
v -14.041028 4.814226 6.353787
v -14.041029 4.445405 5.646217
v -14.041028 4.814226 5.646217
v -8.700000 4.445405 5.646217
v -2.899999 4.445405 5.646216
v 2.900001 4.445405 5.646216
v 8.700003 4.445405 5.646215
v 8.700001 4.814226 5.646215
v 2.900000 4.814226 5.646216
v -2.900000 4.814226 5.646216
v -8.700000 4.814226 5.646217
v 8.700001 4.445405 6.353785
v 2.900001 4.445405 6.353786
v -2.900000 4.445405 6.353786
v -8.700001 4.445405 6.353787
v -8.699999 4.814226 6.353787
v -2.899999 4.814226 6.353786
v 2.900001 4.814226 6.353786
v 8.700002 4.814226 6.353785
v -0.966666 4.445405 5.646216
v 0.966668 4.445405 5.646216
v 0.966667 4.814226 5.646216
v -0.966667 4.814226 5.646216
v 0.966667 4.445405 6.353786
v -0.966667 4.445405 6.353786
v -0.966666 4.814226 6.353786
v 0.966668 4.814226 6.353786
v 14.155769 4.445405 3.424541
v 14.155770 4.814226 3.424541
v 14.155769 4.445405 2.575458
v 14.155770 4.814226 2.575458
v -14.041029 4.445405 3.424544
v -14.041028 4.814226 3.424544
v -14.041029 4.445405 2.575460
v -14.041028 4.814226 2.575460
v -8.700001 4.445405 2.575459
v -2.900000 4.445405 2.575459
v 4.020463 4.460216 2.550709
v 8.700002 4.445405 2.575458
v 8.700000 4.814226 2.575458
v 4.126517 4.813457 2.551268
v -2.900001 4.814226 2.575459
v -8.700001 4.814226 2.575459
v 8.700001 4.445405 3.424542
v 3.958315 4.475148 3.398927
v -2.900000 4.445405 3.424543
v -8.700002 4.445405 3.424543
v -8.700000 4.814226 3.424543
v -2.899999 4.814226 3.424543
v 4.064371 4.828391 3.399485
v 8.700001 4.814226 3.424542
v -0.966666 4.445405 2.575458
v 0.966668 4.445405 2.575458
v 0.966667 4.814226 2.575458
v -0.966667 4.814226 2.575458
v 0.966667 4.445405 3.424542
v -0.966667 4.445405 3.424542
v -0.966666 4.814226 3.424542
v 0.966668 4.814226 3.424542
v 5.667609 3.456776 2.600515
v 5.773664 3.810019 2.601073
v 5.605462 3.471709 3.448732
v 5.711518 3.824951 3.449291
v 14.155769 4.445405 0.353784
v 14.155770 4.814226 0.353784
v 14.155769 4.445405 -0.353786
v 14.155770 4.814226 -0.353786
v -14.041029 4.445405 0.353786
v -14.041028 4.814226 0.353786
v -14.041029 4.445405 -0.353784
v -14.041028 4.814226 -0.353784
v 14.155769 4.445405 -2.646216
v 14.155770 4.814226 -2.646216
v 14.155769 4.445405 -3.353786
v 14.155770 4.814226 -3.353786
v -14.041029 4.445405 -2.646214
v -14.041028 4.814226 -2.646214
v -14.041029 4.445405 -3.353784
v -14.041028 4.814226 -3.353784
v -8.700001 4.445405 -3.353784
v -2.900000 4.445405 -3.353785
v 2.900000 4.445405 -3.353786
v 8.700002 4.445405 -3.353786
v 8.700000 4.814226 -3.353786
v 2.899999 4.814226 -3.353786
v -2.900001 4.814226 -3.353785
v -8.700001 4.814226 -3.353784
v 8.700001 4.445405 -2.646216
v 2.900000 4.445405 -2.646215
v -2.900001 4.445405 -2.646215
v -8.700002 4.445405 -2.646214
v -8.700000 4.814226 -2.646214
v -2.900000 4.814226 -2.646215
v 2.900000 4.814226 -2.646215
v 8.700001 4.814226 -2.646216
v -0.966667 4.445405 -3.353785
v 0.966667 4.445405 -3.353785
v 0.966666 4.814226 -3.353785
v -0.966668 4.814226 -3.353785
v 0.966666 4.445405 -2.646215
v -0.966668 4.445405 -2.646215
v -0.966667 4.814226 -2.646215
v 0.966667 4.814226 -2.646215
v 2.697257 4.445405 -11.343735
v 2.697257 4.814226 -11.343735
v 3.404827 4.445405 -11.343735
v 3.404827 4.814226 -11.343735
v 3.404827 4.445405 -8.754237
v 3.404828 4.445405 -2.954237
v 3.404828 4.445405 2.845764
v 3.404829 4.445405 11.533415
v 3.404829 4.814226 11.533413
v 3.404828 4.814226 2.845763
v 3.404828 4.814226 -2.954238
v 3.404827 4.814226 -8.754238
v 2.697259 4.445405 11.533413
v 2.697258 4.445405 2.845763
v 2.697258 4.445405 -2.954238
v 2.697257 4.445405 -8.754238
v 2.697257 4.814226 -8.754237
v 2.697257 4.814226 -2.954237
v 2.697258 4.814226 2.845765
v 2.697259 4.814226 11.533415
v 3.404828 4.445405 -1.020903
v 3.404828 4.445405 0.912431
v 3.404828 4.814226 0.912430
v 3.404828 4.814226 -1.020904
v 2.697258 4.445405 0.912430
v 2.697258 4.445405 -1.020904
v 2.697258 4.814226 -1.020903
v 2.697258 4.814226 0.912431
vn -0.9990 0.0450 -0.0000
vn -0.0523 -0.9986 -0.0000
vn 0.0523 0.9986 -0.0000
vn -0.0000 -0.0000 1.0000
vn 0.7279 -0.0328 -0.6849
vn 0.9990 -0.0450 -0.0000
vn -0.0000 -0.0000 -1.0000
vn 0.4163 -0.0187 0.9090
vn -0.3074 0.0138 -0.9515
vn -0.6295 0.0284 0.7765
vn -0.4858 0.0219 0.8738
vn 0.4173 -0.0188 -0.9086
vn -0.8801 0.0396 -0.4732
vn 0.4566 -0.0206 -0.8894
vn -0.5378 0.0242 0.8427
vn -0.5036 0.0227 -0.8636
vn 0.9170 -0.0413 -0.3967
vn -0.6288 0.0283 0.7770
vn 0.9030 -0.0407 0.4277
vn 0.5443 -0.0245 0.8385
vn -0.7897 0.0356 -0.6125
vn 0.9135 -0.0411 -0.4047
vn -0.8283 0.0373 -0.5590
vn 0.6918 -0.0312 0.7214
vn -1.0000 -0.0000 -0.0000
vn -0.0000 -1.0000 -0.0000
vn -0.0000 1.0000 -0.0000
vn 1.0000 -0.0000 -0.0000
vn 0.0177 -0.0481 -0.9987
vn 0.9658 0.2592 -0.0000
vn 0.1571 -0.9864 0.0476
vn 0.1407 0.9901 -0.0000
vn -0.1577 0.9863 -0.0475
vn -0.5878 0.7719 -0.2421
vn -0.1914 0.9815 -0.0000
vn -0.1380 -0.9904 -0.0000
vn 0.1914 -0.9815 -0.0000
vn 0.5878 -0.7719 0.2421
vn -0.0178 0.0480 0.9987
vn 0.0165 0.0988 0.9950
vn -0.0165 -0.0988 -0.9950
vn -0.9867 0.0202 0.1616
vn 0.9815 0.1914 -0.0000
vn 0.0022 1.0000 -0.0089
vn -0.0083 -0.0020 1.0000
vn 0.0079 0.0019 -1.0000
vn -0.0074 -0.9999 0.0091
vn -0.5196 0.8541 0.0230
vn 0.0264 0.0063 0.9996
vn 0.5196 -0.8541 -0.0230
vn -0.0264 -0.0063 -0.9996
vn -0.9550 -0.2869 0.0750
vn -0.0177 -0.0481 -0.9987
vn -0.9658 0.2592 -0.0000
vn -0.1571 -0.9864 0.0476
vn -0.1407 0.9901 -0.0000
vn 0.1577 0.9863 -0.0475
vn 0.5878 0.7719 -0.2421
vn 0.1914 0.9815 -0.0000
vn 0.1380 -0.9904 -0.0000
vn -0.1914 -0.9815 -0.0000
vn -0.5878 -0.7719 0.2421
vn 0.0178 0.0480 0.9987
vn -0.0165 0.0988 0.9950
vn 0.0165 -0.0988 -0.9950
vn 0.9867 0.0202 0.1616
vn -0.9815 0.1914 -0.0000
vn -0.0022 1.0000 -0.0089
vn 0.0083 -0.0020 1.0000
vn -0.0079 0.0019 -1.0000
vn 0.0074 -0.9999 0.0091
vn 0.5196 0.8541 0.0230
vn -0.0264 0.0063 0.9996
vn -0.5196 -0.8541 -0.0230
vn 0.0264 -0.0063 -0.9996
vn 0.9550 -0.2869 0.0750
vt 0.925781 0.787259
vt 0.925781 0.784725
vt 0.548828 0.886388
vt 0.548828 0.904321
vt 0.548828 0.925302
vt 0.548828 0.917696
vt 0.548828 0.891581
vt 0.548828 0.894095
vt 0.548828 0.908329
vt 0.548828 0.900071
vt 0.548828 0.889890
vt 0.548828 0.884294
vt 0.548828 0.932568
vt 0.923828 0.900817
vt 0.923828 0.898769
vt 0.923828 0.901323
vt 0.923828 0.903547
vt 0.925781 0.864254
vt 0.925781 0.853420
vt 0.548828 0.897485
vt 0.548828 0.881233
vt 0.548828 0.899690
vt 0.548828 0.900534
vt 0.548828 0.952406
vt 0.548828 0.950073
vt 0.923828 0.955477
vt 0.923828 0.936341
vt 0.923828 0.928398
vt 0.923828 0.933506
vt 0.923828 0.962919
vt 0.548828 0.841653
vt 0.548828 0.842498
vt 0.548828 0.851467
vt 0.548828 0.883810
vt 0.548828 0.877913
vt 0.548828 0.881585
vt 0.548828 0.860602
vt 0.923828 0.775362
vt 0.923828 0.804775
vt 0.923828 0.816084
vt 0.923828 0.816981
vt 0.923828 0.838285
vt 0.923828 0.835551
vt 0.923828 0.847685
vt 0.923828 0.841938
vt 0.923828 0.837881
vt 0.923828 0.880224
vt 0.923828 0.905253
vt 0.923828 0.907767
vt 0.925781 0.961369
vt 0.925781 0.958835
vt 0.925781 0.885763
vt 0.925781 0.886247
vt 0.925781 0.902487
vt 0.925781 0.954359
vt 0.548828 0.898198
vt 0.548828 0.880907
vt 0.923828 0.834734
vt 0.923828 0.836958
vt 0.923828 0.858413
vt 0.923828 0.857672
vt 0.923828 0.879868
vt 0.923828 0.880610
vt 0.923828 0.931368
vt 0.548828 0.785306
vt 0.548828 0.846209
vt 0.548828 0.840366
vt 0.548828 0.842867
vt 0.548828 0.823379
vt 0.548828 0.822558
vt 0.548828 0.812212
vt 0.923828 0.900400
vt 0.923828 0.897991
vt 0.923828 0.894284
vt 0.923828 0.909845
vt 0.548828 0.861280
vt 0.548828 0.839619
vt 0.923828 0.889688
vt 0.548828 0.956882
vt 0.548828 0.929975
vt 0.925781 0.843606
vt 0.923828 0.958027
vt 0.923828 0.883570
vt 0.925781 0.900151
vt 0.925781 0.882860
vt 0.923828 0.772592
vt 0.925781 0.883538
vt 0.925781 0.891843
vt 0.923828 0.965689
vt 0.548828 0.782772
vt 0.548828 0.959416
vt 0.548828 0.902569
vt 0.923828 0.876595
vt 0.923828 0.883041
vt 0.923828 0.885860
vt 0.923828 0.830443
vt 0.923828 0.891585
vt 0.923828 0.895257
vt 0.548828 0.862301
vt 0.923828 0.920083
vt 0.548828 0.835694
vt 0.925781 0.863233
vt 0.923828 0.905463
vt 0.923828 0.859528
vt 0.923828 0.891536
vt 0.923828 0.865138
vt 0.923828 0.900060
vt 0.925781 0.841572
vt 0.925781 0.814166
vt 0.923828 0.849366
vt 0.923828 0.836230
vt 0.925781 0.904522
vt 0.923828 0.837051
vt 0.923828 0.894905
vt 0.923828 0.859881
vt 0.923828 0.875973
vt 0.925781 0.931928
vt 0.923828 0.897482
vt 0.925781 0.910282
vt 0.925781 0.919649
vt 0.797148 0.905187
vt 0.831758 0.905187
vt 0.833579 0.910289
vt 0.795327 0.910288
vt 0.833579 0.948540
vt 0.795327 0.948540
vt 0.790226 0.912109
vt 0.790226 0.946719
vt 0.838680 0.912109
vt 0.838680 0.946719
vt 0.845602 0.912109
vt 0.845602 0.946719
vt 0.850217 0.912109
vt 0.852524 0.912109
vt 0.852524 0.946719
vt 0.850217 0.946719
vt 0.860696 0.912109
vt 0.860696 0.946719
vt 0.768211 0.912109
vt 0.776382 0.912109
vt 0.776382 0.946719
vt 0.768211 0.946719
vt 0.780997 0.912109
vt 0.783304 0.912109
vt 0.783304 0.946719
vt 0.780997 0.946719
vt 0.831758 0.953641
vt 0.797148 0.953641
vt 0.831758 0.960563
vt 0.797148 0.960563
vt 0.797148 0.965178
vt 0.831758 0.965178
vt 0.831758 0.967485
vt 0.797148 0.967485
vt 0.831758 0.975657
vt 0.797148 0.975657
vt 0.797148 0.883172
vt 0.831758 0.883172
vt 0.831758 0.891343
vt 0.797148 0.891343
vt 0.797148 0.895958
vt 0.831758 0.895958
vt 0.831758 0.898265
vt 0.797148 0.898265
vt 0.831758 0.893651
vt 0.797148 0.893651
vt 0.831758 0.962870
vt 0.797148 0.962870
vt 0.778690 0.912109
vt 0.778690 0.946719
vt 0.847909 0.912109
vt 0.847909 0.946719
vt 0.797148 0.842890
vt 0.831758 0.842890
vt 0.831758 0.877500
vt 0.797148 0.877500
vt 0.831758 0.912109
vt 0.797148 0.912109
vt 0.831758 0.946719
vt 0.797148 0.946719
vt 0.797148 0.974407
vt 0.831758 0.974407
vt 0.831758 0.981329
vt 0.797148 0.981329
vt 0.859446 0.912109
vt 0.866368 0.912109
vt 0.866368 0.946719
vt 0.859446 0.946719
vt 0.762538 0.912109
vt 0.769460 0.912109
vt 0.769460 0.946719
vt 0.762538 0.946719
vt 0.831758 0.884421
vt 0.797148 0.884421
vt 0.840405 0.912109
vt 0.840405 0.946719
vt 0.854137 0.912109
vt 0.854137 0.946719
vt 0.774769 0.912109
vt 0.774769 0.946719
vt 0.788502 0.912109
vt 0.788502 0.946719
vt 0.831758 0.955366
vt 0.797148 0.955366
vt 0.797148 0.969098
vt 0.831758 0.969098
vt 0.831758 0.889731
vt 0.797148 0.889731
vt 0.797148 0.903463
vt 0.831758 0.903463
vt 0.814344 0.887477
vt 0.814344 0.909771
vt 0.831758 0.968717
vt 0.778674 0.923147
vt 0.797148 0.890112
vt 0.800968 0.874101
vt 0.765298 0.887477
vt 0.765298 0.909771
vt 0.796878 0.912920
s 0
usemtl restaurant.008
f 33/1/1 2/2/1 49/2/1 14/1/1
f 71/3/2 74/4/2 20/5/2 76/6/2 78/7/2 79/8/2 77/9/2 22/10/2 85/11/2 86/12/2
f 74/4/2 75/13/2 20/5/2
f 50/14/3 27/15/3 8/16/3 44/17/3
f 51/18/4 24/19/4 29/19/4 21/18/4
f 73/20/2 23/21/2 11/22/2
f 37/23/2 28/24/2 9/25/2 11/22/2
f 39/26/3 57/27/3 30/28/3 12/29/3 32/30/3
f 38/31/2 37/23/2 11/22/2 23/21/2 13/32/2
f 29/33/2 71/3/2 86/12/2 87/34/2 88/35/2 1/36/2 3/37/2
f 33/38/3 10/39/3 63/40/3 65/41/3 64/42/3 62/43/3 24/44/3 54/45/3 35/46/3
f 35/46/3 54/45/3 52/47/3
f 60/48/5 61/49/5 79/49/5 78/48/5
f 6/50/6 32/51/6 19/51/6 45/50/6
f 69/52/6 87/52/6 86/53/6 68/53/6
f 11/22/2 9/25/2 75/13/2 73/20/2
f 16/54/7 26/55/7 28/55/7 37/54/7
f 1/36/2 85/11/2 22/10/2 25/56/2 31/57/2
f 41/58/3 4/59/3 17/60/3 47/61/3
f 47/61/3 17/60/3 18/62/3 48/63/3
f 58/64/8 60/48/8 78/48/8 76/64/8
f 14/65/2 13/32/2 72/66/2 29/33/2 80/67/2 82/68/2 83/69/2 81/70/2 42/71/2
f 36/72/3 55/73/3 57/27/3 39/26/3
f 61/74/9 59/75/9 77/75/9 79/74/9
f 3/37/2 1/36/2 31/57/2 34/76/2
f 7/77/2 3/37/2 34/76/2 46/31/2
f 48/63/3 18/62/3 27/15/3 50/14/3 67/78/3
f 9/25/2 19/79/2 40/80/2 20/5/2 75/13/2
f 2/2/7 15/81/7 38/81/7 49/2/7
f 16/16/3 36/72/3 39/26/3 26/82/3
f 67/78/10 68/83/10 86/83/10 85/78/10
f 27/84/4 18/85/4 31/85/4 25/84/4
f 15/59/3 35/46/3 52/47/3 36/72/3 16/16/3
f 2/86/3 33/38/3 35/46/3 15/59/3
f 1/87/7 48/87/7 67/88/7 85/88/7
f 26/82/3 39/26/3 32/30/3 6/89/3
f 49/90/2 38/31/2 13/32/2 14/65/2
f 28/24/2 45/91/2 19/79/2 9/25/2
f 57/27/11 55/73/11 73/73/11 75/27/11
f 22/10/2 5/92/2 43/23/2 25/56/2
f 24/44/3 47/61/3 48/63/3 70/93/3 69/94/3 68/83/3 53/95/3
f 10/39/3 41/58/3 47/61/3 24/44/3 62/43/3 66/96/3 63/40/3
f 13/32/2 23/21/2 72/66/2
f 70/97/12 48/98/12 1/98/12 88/97/12
f 72/66/2 21/99/2 29/33/2
f 20/5/2 40/80/2 5/92/2 22/10/2 77/9/2 76/6/2
f 30/28/3 58/100/3 59/75/3 50/14/3 44/17/3 12/29/3
f 42/71/2 81/70/2 84/101/2 80/67/2 29/33/2 3/37/2 7/77/2
f 82/42/13 80/43/13 62/43/13 64/42/13
f 17/102/4 4/81/4 46/81/4 34/102/4
f 56/103/3 30/28/3 57/27/3
f 54/45/3 24/44/3 51/104/3
f 8/54/4 27/84/4 25/84/4 43/54/4
f 55/73/3 36/72/3 52/47/3
f 53/95/3 68/83/3 67/78/3 50/14/3 59/75/3 61/74/3 60/105/3 58/100/3 30/28/3 56/103/3
f 15/81/7 16/54/7 37/54/7 38/81/7
f 26/55/7 6/50/7 45/50/7 28/55/7
f 24/106/14 53/107/14 71/107/14 29/106/14
f 41/108/1 10/109/1 42/109/1 7/108/1
f 64/42/15 65/41/15 83/41/15 82/42/15
f 56/103/16 57/27/16 75/27/16 74/103/16
f 18/85/4 17/102/4 34/102/4 31/85/4
f 66/110/17 84/110/17 81/111/17 63/111/17
f 44/112/6 8/54/6 43/54/6 5/112/6
f 55/73/18 52/47/18 23/47/18 73/73/18
f 81/111/19 83/113/19 65/113/19 63/111/19
f 10/109/1 33/1/1 14/1/1 42/109/1
f 52/114/20 54/115/20 72/115/20 23/114/20
f 62/43/21 80/43/21 84/96/21 66/96/21
f 54/115/22 51/116/22 21/116/22 72/115/22
f 12/117/6 44/112/6 5/112/6 40/117/6
f 53/95/23 56/103/23 74/103/23 71/95/23
f 4/81/1 41/108/1 7/108/1 46/81/1
f 69/118/24 70/97/24 88/97/24 87/118/24
f 32/51/6 12/117/6 40/117/6 19/51/6
f 59/119/1 58/120/1 76/120/1 77/119/1
f 93/121/25 100/122/25 92/123/25 91/124/25
f 91/124/7 92/123/7 90/125/7 89/126/7
f 93/127/26 91/124/26 89/126/26 104/128/26
f 92/123/27 100/129/27 105/130/27 90/125/27
f 100/129/27 99/131/27 106/132/27 105/130/27
f 111/133/27 98/134/27 107/135/27 116/136/27
f 98/134/27 97/137/27 108/138/27 107/135/27
f 96/139/26 95/140/26 102/141/26 101/142/26
f 109/143/26 94/144/26 103/145/26 114/146/26
f 94/144/26 93/127/26 104/128/26 103/145/26
f 89/126/28 90/125/28 105/147/28 104/148/28
f 104/148/28 105/147/28 106/149/28 103/150/28
f 113/151/28 116/152/28 107/153/28 102/154/28
f 102/154/28 107/153/28 108/155/28 101/156/28
f 96/157/25 97/158/25 98/159/25 95/160/25
f 109/161/25 112/162/25 99/163/25 94/164/25
f 94/164/25 99/163/25 100/122/25 93/121/25
f 95/160/25 98/159/25 111/165/25 110/166/25
f 110/166/25 111/165/25 112/162/25 109/161/25
f 103/150/28 106/149/28 115/167/28 114/168/28
f 114/168/28 115/167/28 116/152/28 113/151/28
f 95/140/26 110/169/26 113/170/26 102/141/26
f 110/169/26 109/143/26 114/146/26 113/170/26
f 99/131/27 112/171/27 115/172/27 106/132/27
f 112/171/27 111/133/27 116/136/27 115/172/27
f 117/173/25 118/174/25 120/175/25 119/176/25
f 125/121/7 132/122/7 124/177/7 123/178/7
f 123/178/28 124/177/28 122/179/28 121/180/28
f 133/181/4 140/182/4 118/183/4 117/184/4
f 125/127/26 123/178/26 121/180/26 136/128/26
f 129/185/27 120/186/27 118/187/27 140/188/27
f 124/177/27 132/129/27 137/130/27 122/179/27
f 132/129/27 131/131/27 138/132/27 137/130/27
f 143/133/27 130/134/27 139/135/27 148/136/27
f 130/134/27 129/185/27 140/188/27 139/135/27
f 119/189/26 128/190/26 133/191/26 117/192/26
f 128/190/26 127/140/26 134/141/26 133/191/26
f 141/143/26 126/144/26 135/145/26 146/146/26
f 126/144/26 125/127/26 136/128/26 135/145/26
f 121/180/4 122/179/4 137/147/4 136/148/4
f 136/148/4 137/147/4 138/149/4 135/150/4
f 145/151/4 148/152/4 139/153/4 134/154/4
f 134/154/4 139/153/4 140/182/4 133/181/4
f 119/176/7 120/175/7 129/193/7 128/194/7
f 128/194/7 129/193/7 130/159/7 127/160/7
f 141/161/7 144/162/7 131/163/7 126/164/7
f 126/164/7 131/163/7 132/122/7 125/121/7
f 127/160/7 130/159/7 143/165/7 142/166/7
f 142/166/7 143/165/7 144/162/7 141/161/7
f 135/150/4 138/149/4 147/167/4 146/168/4
f 146/168/4 147/167/4 148/152/4 145/151/4
f 127/140/26 142/169/26 145/170/26 134/141/26
f 142/169/26 141/143/26 146/146/26 145/170/26
f 131/131/27 144/171/27 147/172/27 138/132/27
f 144/171/27 143/133/27 148/136/27 147/172/27
f 149/173/25 150/174/25 152/175/25 151/176/25
f 157/121/29 164/122/29 156/177/29 155/178/29
f 155/178/30 156/177/30 154/179/30 153/180/30
f 165/181/4 172/182/4 150/183/4 149/184/4
f 157/127/31 155/178/31 153/180/31 168/128/31
f 161/185/32 152/186/32 150/187/32 172/188/32
f 156/177/33 164/129/33 169/130/33 154/179/33
f 164/129/34 163/195/34 170/196/34 169/130/34
f 162/197/35 161/185/35 172/188/35 171/198/35
f 151/189/36 160/190/36 165/191/36 149/192/36
f 160/190/37 159/199/37 166/200/37 165/191/37
f 158/201/38 157/127/38 168/128/38 167/202/38
f 153/180/39 154/179/39 169/147/39 168/148/39
f 168/148/40 169/147/40 170/203/40 167/204/40
f 166/205/4 171/206/4 172/182/4 165/181/4
f 151/176/7 152/175/7 161/193/7 160/194/7
f 160/194/7 161/193/7 162/207/7 159/208/7
f 158/209/41 163/210/41 164/122/41 157/121/41
f 170/203/42 163/210/42 158/201/42 167/204/42
f 171/206/43 166/205/43 159/199/43 162/207/43
f 173/173/25 174/174/25 176/175/25 175/176/25
f 181/121/7 188/122/7 180/177/7 179/178/7
f 179/178/28 180/177/28 178/179/28 177/180/28
f 189/181/4 196/182/4 174/183/4 173/184/4
f 181/127/26 179/178/26 177/180/26 192/128/26
f 185/185/27 176/186/27 174/187/27 196/188/27
f 180/177/27 188/129/27 193/130/27 178/179/27
f 188/129/27 187/131/27 194/132/27 193/130/27
f 199/133/27 186/134/27 195/135/27 204/136/27
f 186/134/27 185/185/27 196/188/27 195/135/27
f 175/189/26 184/190/26 189/191/26 173/192/26
f 184/190/26 183/140/26 190/141/26 189/191/26
f 197/143/26 182/144/26 191/145/26 202/146/26
f 182/144/26 181/127/26 192/128/26 191/145/26
f 177/180/4 178/179/4 193/147/4 192/148/4
f 192/148/4 193/147/4 194/149/4 191/150/4
f 201/151/4 204/152/4 195/153/4 190/154/4
f 190/154/4 195/153/4 196/182/4 189/181/4
f 175/176/7 176/175/7 185/193/7 184/194/7
f 184/194/7 185/193/7 186/159/7 183/160/7
f 197/161/7 200/162/7 187/163/7 182/164/7
f 182/164/7 187/163/7 188/122/7 181/121/7
f 183/160/7 186/159/7 199/165/7 198/166/7
f 198/166/7 199/165/7 200/162/7 197/161/7
f 191/150/4 194/149/4 203/167/4 202/168/4
f 202/168/4 203/167/4 204/152/4 201/151/4
f 183/140/26 198/169/26 201/170/26 190/141/26
f 198/169/26 197/143/26 202/146/26 201/170/26
f 187/131/27 200/171/27 203/172/27 194/132/27
f 200/171/27 199/133/27 204/136/27 203/172/27
f 205/173/25 206/174/25 208/175/25 207/176/25
f 213/121/7 220/122/7 212/177/7 211/178/7
f 211/178/28 212/177/28 210/179/28 209/180/28
f 213/127/26 211/178/26 209/180/26 224/128/26
f 212/177/27 220/129/27 225/130/27 210/179/27
f 220/129/27 219/131/27 226/132/27 225/130/27
f 231/133/44 218/211/44 227/212/44 236/136/44
f 229/143/26 214/144/26 223/145/26 234/146/26
f 214/144/26 213/127/26 224/128/26 223/145/26
f 209/180/4 210/179/4 225/147/4 224/148/4
f 224/148/4 225/147/4 226/149/4 223/150/4
f 233/151/45 236/152/45 227/213/45 222/214/45
f 229/161/7 232/162/7 219/163/7 214/164/7
f 214/164/7 219/163/7 220/122/7 213/121/7
f 215/215/46 218/216/46 231/165/46 230/166/46
f 230/166/7 231/165/7 232/162/7 229/161/7
f 223/150/4 226/149/4 235/167/4 234/168/4
f 234/168/4 235/167/4 236/152/4 233/151/4
f 215/217/47 230/169/47 233/170/47 222/218/47
f 230/169/26 229/143/26 234/146/26 233/170/26
f 219/131/27 232/171/27 235/172/27 226/132/27
f 232/171/27 231/133/27 236/136/27 235/172/27
f 217/219/7 216/219/7 207/176/7 208/175/7
f 217/219/27 208/175/27 206/174/27 228/219/27
f 205/173/26 207/176/26 216/219/26 221/219/26
f 205/173/4 221/219/4 228/219/4 206/174/4
f 238/219/48 240/219/48 227/212/48 218/211/48
f 239/219/49 222/214/49 227/212/49 240/219/49
f 237/219/50 215/217/50 222/218/50 239/219/50
f 238/219/51 218/216/51 215/217/51 237/219/51
f 238/219/52 237/219/52 239/219/52 240/219/52
f 216/219/28 217/219/28 228/219/28 221/219/28
f 241/173/25 242/174/25 244/175/25 243/176/25
f 243/176/7 244/175/7 248/177/7 247/178/7
f 247/178/28 248/177/28 246/179/28 245/180/28
f 245/180/4 246/179/4 242/183/4 241/184/4
f 243/189/26 247/178/26 245/180/26 241/192/26
f 248/177/27 244/186/27 242/187/27 246/179/27
f 249/173/25 250/174/25 252/175/25 251/176/25
f 257/121/7 264/122/7 256/177/7 255/178/7
f 255/178/28 256/177/28 254/179/28 253/180/28
f 265/181/4 272/182/4 250/183/4 249/184/4
f 257/127/26 255/178/26 253/180/26 268/128/26
f 261/185/27 252/186/27 250/187/27 272/188/27
f 256/177/27 264/129/27 269/130/27 254/179/27
f 264/129/27 263/131/27 270/132/27 269/130/27
f 275/133/27 262/134/27 271/135/27 280/136/27
f 262/134/27 261/185/27 272/188/27 271/135/27
f 251/189/26 260/190/26 265/191/26 249/192/26
f 260/190/26 259/140/26 266/141/26 265/191/26
f 273/143/26 258/144/26 267/145/26 278/146/26
f 258/144/26 257/127/26 268/128/26 267/145/26
f 253/180/4 254/179/4 269/147/4 268/148/4
f 268/148/4 269/147/4 270/149/4 267/150/4
f 277/151/4 280/152/4 271/153/4 266/154/4
f 266/154/4 271/153/4 272/182/4 265/181/4
f 251/176/7 252/175/7 261/193/7 260/194/7
f 260/194/7 261/193/7 262/159/7 259/160/7
f 273/161/7 276/162/7 263/163/7 258/164/7
f 258/164/7 263/163/7 264/122/7 257/121/7
f 259/160/7 262/159/7 275/165/7 274/166/7
f 274/166/7 275/165/7 276/162/7 273/161/7
f 267/150/4 270/149/4 279/167/4 278/168/4
f 278/168/4 279/167/4 280/152/4 277/151/4
f 259/140/26 274/169/26 277/170/26 266/141/26
f 274/169/26 273/143/26 278/146/26 277/170/26
f 263/131/27 276/171/27 279/172/27 270/132/27
f 276/171/27 275/133/27 280/136/27 279/172/27
f 285/121/25 292/122/25 284/123/25 283/124/25
f 283/124/7 284/123/7 282/125/7 281/126/7
f 285/127/26 283/124/26 281/126/26 296/128/26
f 284/123/27 292/129/27 297/130/27 282/125/27
f 292/129/27 291/131/27 298/132/27 297/130/27
f 303/133/27 290/134/27 299/135/27 308/136/27
f 290/134/27 289/137/27 300/138/27 299/135/27
f 288/139/26 287/140/26 294/141/26 293/142/26
f 301/143/26 286/144/26 295/145/26 306/146/26
f 286/144/26 285/127/26 296/128/26 295/145/26
f 281/126/28 282/125/28 297/147/28 296/148/28
f 296/148/28 297/147/28 298/149/28 295/150/28
f 305/151/28 308/152/28 299/153/28 294/154/28
f 294/154/28 299/153/28 300/155/28 293/156/28
f 288/157/25 289/158/25 290/159/25 287/160/25
f 301/161/25 304/162/25 291/163/25 286/164/25
f 286/164/25 291/163/25 292/122/25 285/121/25
f 287/160/25 290/159/25 303/165/25 302/166/25
f 302/166/25 303/165/25 304/162/25 301/161/25
f 295/150/28 298/149/28 307/167/28 306/168/28
f 306/168/28 307/167/28 308/152/28 305/151/28
f 287/140/26 302/169/26 305/170/26 294/141/26
f 302/169/26 301/143/26 306/146/26 305/170/26
f 291/131/27 304/171/27 307/172/27 298/132/27
f 304/171/27 303/133/27 308/136/27 307/172/27
f 313/121/28 311/124/28 312/123/28 320/122/28
f 311/124/7 309/126/7 310/125/7 312/123/7
f 313/127/26 324/128/26 309/126/26 311/124/26
f 312/123/27 310/125/27 325/130/27 320/129/27
f 320/129/27 325/130/27 326/132/27 319/131/27
f 331/133/27 336/136/27 327/135/27 318/134/27
f 318/134/27 327/135/27 328/138/27 317/137/27
f 316/139/26 321/142/26 322/141/26 315/140/26
f 329/143/26 334/146/26 323/145/26 314/144/26
f 314/144/26 323/145/26 324/128/26 313/127/26
f 309/126/25 324/148/25 325/147/25 310/125/25
f 324/148/25 323/150/25 326/149/25 325/147/25
f 333/151/25 322/154/25 327/153/25 336/152/25
f 322/154/25 321/156/25 328/155/25 327/153/25
f 316/157/28 315/160/28 318/159/28 317/158/28
f 329/161/28 314/164/28 319/163/28 332/162/28
f 314/164/28 313/121/28 320/122/28 319/163/28
f 315/160/28 330/166/28 331/165/28 318/159/28
f 330/166/28 329/161/28 332/162/28 331/165/28
f 323/150/25 334/168/25 335/167/25 326/149/25
f 334/168/25 333/151/25 336/152/25 335/167/25
f 315/140/26 322/141/26 333/170/26 330/169/26
f 330/169/26 333/170/26 334/146/26 329/143/26
f 319/131/27 326/132/27 335/172/27 332/171/27
f 332/171/27 335/172/27 336/136/27 331/133/27
f 337/173/28 339/176/28 340/175/28 338/174/28
f 345/121/7 343/178/7 344/177/7 352/122/7
f 343/178/25 341/180/25 342/179/25 344/177/25
f 353/181/4 337/184/4 338/183/4 360/182/4
f 345/127/26 356/128/26 341/180/26 343/178/26
f 349/185/27 360/188/27 338/187/27 340/186/27
f 344/177/27 342/179/27 357/130/27 352/129/27
f 352/129/27 357/130/27 358/132/27 351/131/27
f 363/133/27 368/136/27 359/135/27 350/134/27
f 350/134/27 359/135/27 360/188/27 349/185/27
f 339/189/26 337/192/26 353/191/26 348/190/26
f 348/190/26 353/191/26 354/141/26 347/140/26
f 361/143/26 366/146/26 355/145/26 346/144/26
f 346/144/26 355/145/26 356/128/26 345/127/26
f 341/180/4 356/148/4 357/147/4 342/179/4
f 356/148/4 355/150/4 358/149/4 357/147/4
f 365/151/4 354/154/4 359/153/4 368/152/4
f 354/154/4 353/181/4 360/182/4 359/153/4
f 339/176/7 348/194/7 349/193/7 340/175/7
f 348/194/7 347/160/7 350/159/7 349/193/7
f 361/161/7 346/164/7 351/163/7 364/162/7
f 346/164/7 345/121/7 352/122/7 351/163/7
f 347/160/7 362/166/7 363/165/7 350/159/7
f 362/166/7 361/161/7 364/162/7 363/165/7
f 355/150/4 366/168/4 367/167/4 358/149/4
f 366/168/4 365/151/4 368/152/4 367/167/4
f 347/140/26 354/141/26 365/170/26 362/169/26
f 362/169/26 365/170/26 366/146/26 361/143/26
f 351/131/27 358/132/27 367/172/27 364/171/27
f 364/171/27 367/172/27 368/136/27 363/133/27
f 369/173/28 371/176/28 372/175/28 370/174/28
f 377/121/53 375/178/53 376/177/53 384/122/53
f 375/178/54 373/180/54 374/179/54 376/177/54
f 385/181/4 369/184/4 370/183/4 392/182/4
f 377/127/55 388/128/55 373/180/55 375/178/55
f 381/185/56 392/188/56 370/187/56 372/186/56
f 376/177/57 374/179/57 389/130/57 384/129/57
f 384/129/58 389/130/58 390/196/58 383/195/58
f 382/197/59 391/198/59 392/188/59 381/185/59
f 371/189/60 369/192/60 385/191/60 380/190/60
f 380/190/61 385/191/61 386/200/61 379/199/61
f 378/201/62 387/202/62 388/128/62 377/127/62
f 373/180/63 388/148/63 389/147/63 374/179/63
f 388/148/64 387/204/64 390/203/64 389/147/64
f 386/205/4 385/181/4 392/182/4 391/206/4
f 371/176/7 380/194/7 381/193/7 372/175/7
f 380/194/7 379/208/7 382/207/7 381/193/7
f 378/209/65 377/121/65 384/122/65 383/210/65
f 390/203/66 387/204/66 378/201/66 383/210/66
f 391/206/67 382/207/67 379/199/67 386/205/67
f 393/173/28 395/176/28 396/175/28 394/174/28
f 401/121/7 399/178/7 400/177/7 408/122/7
f 399/178/25 397/180/25 398/179/25 400/177/25
f 409/181/4 393/184/4 394/183/4 416/182/4
f 401/127/26 412/128/26 397/180/26 399/178/26
f 405/185/27 416/188/27 394/187/27 396/186/27
f 400/177/27 398/179/27 413/130/27 408/129/27
f 408/129/27 413/130/27 414/132/27 407/131/27
f 419/133/27 424/136/27 415/135/27 406/134/27
f 406/134/27 415/135/27 416/188/27 405/185/27
f 395/189/26 393/192/26 409/191/26 404/190/26
f 404/190/26 409/191/26 410/141/26 403/140/26
f 417/143/26 422/146/26 411/145/26 402/144/26
f 402/144/26 411/145/26 412/128/26 401/127/26
f 397/180/4 412/148/4 413/147/4 398/179/4
f 412/148/4 411/150/4 414/149/4 413/147/4
f 421/151/4 410/154/4 415/153/4 424/152/4
f 410/154/4 409/181/4 416/182/4 415/153/4
f 395/176/7 404/194/7 405/193/7 396/175/7
f 404/194/7 403/160/7 406/159/7 405/193/7
f 417/161/7 402/164/7 407/163/7 420/162/7
f 402/164/7 401/121/7 408/122/7 407/163/7
f 403/160/7 418/166/7 419/165/7 406/159/7
f 418/166/7 417/161/7 420/162/7 419/165/7
f 411/150/4 422/168/4 423/167/4 414/149/4
f 422/168/4 421/151/4 424/152/4 423/167/4
f 403/140/26 410/141/26 421/170/26 418/169/26
f 418/169/26 421/170/26 422/146/26 417/143/26
f 407/131/27 414/132/27 423/172/27 420/171/27
f 420/171/27 423/172/27 424/136/27 419/133/27
f 425/173/28 427/176/28 428/175/28 426/174/28
f 433/121/7 431/178/7 432/177/7 440/122/7
f 431/178/25 429/180/25 430/179/25 432/177/25
f 433/127/26 444/128/26 429/180/26 431/178/26
f 432/177/27 430/179/27 445/130/27 440/129/27
f 440/129/27 445/130/27 446/132/27 439/131/27
f 451/133/68 456/136/68 447/212/68 438/211/68
f 449/143/26 454/146/26 443/145/26 434/144/26
f 434/144/26 443/145/26 444/128/26 433/127/26
f 429/180/4 444/148/4 445/147/4 430/179/4
f 444/148/4 443/150/4 446/149/4 445/147/4
f 453/151/69 442/214/69 447/213/69 456/152/69
f 449/161/7 434/164/7 439/163/7 452/162/7
f 434/164/7 433/121/7 440/122/7 439/163/7
f 435/215/70 450/166/70 451/165/70 438/216/70
f 450/166/7 449/161/7 452/162/7 451/165/7
f 443/150/4 454/168/4 455/167/4 446/149/4
f 454/168/4 453/151/4 456/152/4 455/167/4
f 435/217/71 442/218/71 453/170/71 450/169/71
f 450/169/26 453/170/26 454/146/26 449/143/26
f 439/131/27 446/132/27 455/172/27 452/171/27
f 452/171/27 455/172/27 456/136/27 451/133/27
f 437/219/7 428/175/7 427/176/7 436/219/7
f 437/219/27 448/219/27 426/174/27 428/175/27
f 425/173/26 441/219/26 436/219/26 427/176/26
f 425/173/4 426/174/4 448/219/4 441/219/4
f 458/219/72 438/211/72 447/212/72 460/219/72
f 459/219/73 460/219/73 447/212/73 442/214/73
f 457/219/74 459/219/74 442/218/74 435/217/74
f 458/219/75 457/219/75 435/217/75 438/216/75
f 458/219/76 460/219/76 459/219/76 457/219/76
f 436/219/25 441/219/25 448/219/25 437/219/25
f 461/173/28 463/176/28 464/175/28 462/174/28
f 463/176/7 467/178/7 468/177/7 464/175/7
f 467/178/25 465/180/25 466/179/25 468/177/25
f 465/180/4 461/184/4 462/183/4 466/179/4
f 463/189/26 461/192/26 465/180/26 467/178/26
f 468/177/27 466/179/27 462/187/27 464/186/27
f 469/173/28 471/176/28 472/175/28 470/174/28
f 477/121/7 475/178/7 476/177/7 484/122/7
f 475/178/25 473/180/25 474/179/25 476/177/25
f 485/181/4 469/184/4 470/183/4 492/182/4
f 477/127/26 488/128/26 473/180/26 475/178/26
f 481/185/27 492/188/27 470/187/27 472/186/27
f 476/177/27 474/179/27 489/130/27 484/129/27
f 484/129/27 489/130/27 490/132/27 483/131/27
f 495/133/27 500/136/27 491/135/27 482/134/27
f 482/134/27 491/135/27 492/188/27 481/185/27
f 471/189/26 469/192/26 485/191/26 480/190/26
f 480/190/26 485/191/26 486/141/26 479/140/26
f 493/143/26 498/146/26 487/145/26 478/144/26
f 478/144/26 487/145/26 488/128/26 477/127/26
f 473/180/4 488/148/4 489/147/4 474/179/4
f 488/148/4 487/150/4 490/149/4 489/147/4
f 497/151/4 486/154/4 491/153/4 500/152/4
f 486/154/4 485/181/4 492/182/4 491/153/4
f 471/176/7 480/194/7 481/193/7 472/175/7
f 480/194/7 479/160/7 482/159/7 481/193/7
f 493/161/7 478/164/7 483/163/7 496/162/7
f 478/164/7 477/121/7 484/122/7 483/163/7
f 479/160/7 494/166/7 495/165/7 482/159/7
f 494/166/7 493/161/7 496/162/7 495/165/7
f 487/150/4 498/168/4 499/167/4 490/149/4
f 498/168/4 497/151/4 500/152/4 499/167/4
f 479/140/26 486/141/26 497/170/26 494/169/26
f 494/169/26 497/170/26 498/146/26 493/143/26
f 483/131/27 490/132/27 499/172/27 496/171/27
f 496/171/27 499/172/27 500/136/27 495/133/27
f 505/121/28 503/124/28 504/123/28 512/122/28
f 503/124/7 501/126/7 502/125/7 504/123/7
f 505/127/26 516/128/26 501/126/26 503/124/26
f 504/123/27 502/125/27 517/130/27 512/129/27
f 512/129/27 517/130/27 518/132/27 511/131/27
f 523/133/27 528/136/27 519/135/27 510/134/27
f 510/134/27 519/135/27 520/138/27 509/137/27
f 508/139/26 513/142/26 514/141/26 507/140/26
f 521/143/26 526/146/26 515/145/26 506/144/26
f 506/144/26 515/145/26 516/128/26 505/127/26
f 501/126/25 516/148/25 517/147/25 502/125/25
f 516/148/25 515/150/25 518/149/25 517/147/25
f 525/151/25 514/154/25 519/153/25 528/152/25
f 514/154/25 513/156/25 520/155/25 519/153/25
f 508/157/28 507/160/28 510/159/28 509/158/28
f 521/161/28 506/164/28 511/163/28 524/162/28
f 506/164/28 505/121/28 512/122/28 511/163/28
f 507/160/28 522/166/28 523/165/28 510/159/28
f 522/166/28 521/161/28 524/162/28 523/165/28
f 515/150/25 526/168/25 527/167/25 518/149/25
f 526/168/25 525/151/25 528/152/25 527/167/25
f 507/140/26 514/141/26 525/170/26 522/169/26
f 522/169/26 525/170/26 526/146/26 521/143/26
f 511/131/27 518/132/27 527/172/27 524/171/27
f 524/171/27 527/172/27 528/136/27 523/133/27
